<svg width="311" height="52" viewBox="0 0 311 52" fill="none" xmlns="http://www.w3.org/2000/svg">
<path d="M41.3801 12.8148L34.7624 19.546H74.8161V26.0715H52.7571C50.6222 26.0715 48.5723 26.9156 47.0615 28.4193L38.0748 37.3847C35.0603 40.3992 30.9677 42.0873 26.6977 42.0873H0V36.0796H25.5274C28.4923 36.0796 31.3436 34.9022 33.4431 32.8098L40.0608 26.0786H0V19.5531H22.0661C24.201 19.5531 26.2509 18.709 27.7546 17.2053L36.7413 8.2399C39.7629 5.2325 43.8555 3.53729 48.1255 3.53729H74.8161V9.545H49.2958C46.3239 9.545 43.4796 10.7224 41.3801 12.8148Z" fill="white"/>
<path d="M119.707 33.9864C119.707 36.7526 118.572 38.9372 116.331 40.4835C114.061 42.0085 111.075 42.7745 107.458 42.7745C103.585 42.7745 100.471 41.9304 98.2014 40.2565C95.9955 38.6251 94.8323 36.1213 94.7614 32.8018H100.308C100.379 34.7666 101.01 36.2277 102.195 37.1427C103.429 38.0293 105.238 38.4762 107.571 38.4762C109.564 38.4762 111.16 38.1286 112.316 37.4335C113.508 36.7171 114.104 35.6745 114.104 34.3268C114.104 33.426 113.926 32.7096 113.565 32.1848C113.203 31.6599 112.501 31.213 111.444 30.8158C110.415 30.3973 108.834 30.0143 106.755 29.6739C103.791 29.1845 101.464 28.539 99.8257 27.7588C98.1944 26.9431 97.0382 25.9785 96.3786 24.8791C95.7189 23.7371 95.3785 22.3398 95.3785 20.7084C95.3785 18.1337 96.4282 16.0626 98.4852 14.5589C100.563 13.0339 103.337 12.2608 106.72 12.2608C110.6 12.2608 113.636 13.1261 115.749 14.8355C117.849 16.5023 118.948 18.8359 119.026 21.7794H113.65C113.572 19.8927 112.919 18.5451 111.699 17.7861C110.465 16.9705 108.791 16.5591 106.72 16.5591C105.067 16.5591 103.663 16.9137 102.542 17.6088C101.436 18.2826 100.868 19.2544 100.868 20.4814C100.868 21.3539 101.095 22.0632 101.535 22.588C101.975 23.0987 102.72 23.5527 103.776 23.9428C104.833 24.2833 106.429 24.6521 108.507 25.028C111.43 25.5529 113.721 26.2125 115.324 26.9998C116.913 27.773 118.055 28.7234 118.714 29.8228C119.374 30.9293 119.707 32.3266 119.707 33.9864Z" fill="white"/>
<path d="M151.136 12.9423V42.0942H145.533V37.1647C145.533 37.0866 145.476 37.0157 145.398 36.9944C145.32 36.9731 145.235 37.0157 145.199 37.0866C144.27 38.8315 143.015 40.2359 141.454 41.2715C139.901 42.2716 138.007 42.7752 135.822 42.7752C132.297 42.7752 129.651 41.7467 127.956 39.7181C126.254 37.6824 125.389 35.0084 125.389 31.774V12.9423H130.992V31.3768C130.992 33.4196 131.559 35.0652 132.687 36.2639C133.815 37.4697 135.539 38.0796 137.808 38.0796C139.39 38.0796 140.986 37.5548 142.561 36.5192C143.781 35.739 144.646 34.519 145.15 32.8805C145.433 31.9655 145.533 31.0009 145.533 30.0434V12.9494H151.136V12.9423Z" fill="white"/>
<path d="M184.593 23.2619V42.0936H178.99V23.6591C178.99 21.6234 178.422 19.9778 177.302 18.7721C176.174 17.5663 174.45 16.9563 172.174 16.9563C170.599 16.9563 168.982 17.4811 167.372 18.5238C166.18 19.304 165.322 20.5311 164.825 22.1767C164.549 23.0845 164.449 24.0421 164.449 24.9925V42.0936H158.846V12.9417H164.449V17.8713C164.449 17.9564 164.506 18.0273 164.584 18.0486C164.669 18.0628 164.747 18.0273 164.79 17.9564C165.712 16.2115 166.974 14.8213 168.528 13.8212C170.081 12.7856 171.975 12.2608 174.16 12.2608C177.685 12.2608 180.33 13.2892 182.026 15.3178C183.735 17.3606 184.593 20.0346 184.593 23.2619Z" fill="white"/>
<path d="M192.473 3.53729H196.048V18.0494C198.02 14.0774 201.368 12.0914 206.092 12.0914C209.837 12.0914 212.504 13.1482 214.093 15.269C215.681 17.3472 216.476 19.7517 216.476 22.4754V42.1015H212.958V22.7591C212.958 20.5248 212.298 18.7516 210.972 17.4252C209.645 16.0989 207.716 15.4392 205.184 15.4392C203.219 15.4392 201.191 16.1201 199.112 17.482C197.07 18.8083 196.048 21.2838 196.048 25.5963V42.1015H192.473V3.53729Z" fill="white"/>
<path d="M235.847 42.9601C231.57 42.9601 228.264 41.6338 225.917 38.9881C223.611 36.2999 222.455 32.4839 222.455 27.5259C222.455 22.568 223.611 18.7662 225.917 16.1205C228.264 13.4323 231.57 12.0917 235.847 12.0917C240.124 12.0917 243.415 13.4181 245.72 16.0638C248.068 18.674 249.238 22.3978 249.238 27.2422V28.9445H226.03C226.257 32.3137 227.257 34.938 229.037 36.8318C230.818 38.7257 233.088 39.669 235.847 39.669C241.216 39.669 244.28 37.3071 245.039 32.5761H248.614C248.195 36.0587 246.798 38.6689 244.415 40.4067C242.067 42.109 239.216 42.9601 235.847 42.9601ZM245.833 26.0506C245.642 22.6105 244.699 19.9791 242.996 18.1633C241.294 16.312 238.946 15.3829 235.96 15.3829C232.974 15.3829 230.605 16.312 228.867 18.1633C227.165 19.9791 226.222 22.6105 226.03 26.0506H245.833Z" fill="white"/>
<path d="M258.381 3.54422V42.1013H254.806V3.54422H258.381Z" fill="white"/>
<path d="M268.836 12.9642V19.4684C270.46 14.553 274.077 12.0917 279.674 12.0917C283.646 12.0917 286.788 13.4536 289.093 16.1773C291.398 18.9009 292.554 22.6815 292.554 27.5259C292.554 32.3704 291.398 36.1509 289.093 38.8746C286.788 41.5983 283.646 42.9601 279.674 42.9601C276.837 42.9601 274.567 42.4282 272.865 41.3713C271.162 40.2719 269.893 38.6831 269.063 36.6049V51.5H265.488V12.9642H268.836ZM268.779 27.5259C268.779 31.3845 269.651 34.3564 271.389 36.4346C273.127 38.5129 275.567 39.5555 278.709 39.5555C281.851 39.5555 284.461 38.5129 286.199 36.4346C287.98 34.3564 288.866 31.3845 288.866 27.5259C288.866 23.6674 287.98 20.6955 286.199 18.6172C284.461 16.539 281.965 15.4963 278.709 15.4963C275.453 15.4963 273.127 16.539 271.389 18.6172C269.651 20.6955 268.779 23.6674 268.779 27.5259Z" fill="white"/>
<path d="M305.154 8.70912C306.048 8.29754 306.581 7.43029 306.581 6.38666C306.581 4.95349 305.406 3.74081 304.016 3.74081H299.937C299.789 3.74081 299.7 3.82901 299.7 3.976V12.0532C299.7 12.2002 299.789 12.2884 299.937 12.2884H300.861C301.008 12.2884 301.097 12.2002 301.097 12.0532V8.99575H303.817C303.824 8.99575 303.831 8.99575 303.839 8.99575L305.206 12.1267C305.28 12.2443 305.428 12.2884 305.524 12.2884H306.448C306.566 12.2884 306.625 12.2369 306.654 12.1928C306.684 12.1487 306.699 12.0752 306.654 11.9797L305.162 8.72382L305.154 8.70912ZM305.176 6.38666C305.176 6.75414 305.051 7.07017 304.792 7.32005C304.533 7.57729 304.238 7.70958 303.913 7.71693H301.09V5.01229H303.876C304.216 5.01229 304.511 5.14458 304.777 5.41651C305.036 5.6958 305.169 6.01918 305.169 6.38666H305.176Z" fill="white"/>
<path d="M302.989 0C298.584 0 295 3.58659 295 7.98898C295 10.1057 295.828 12.1121 297.343 13.6408C298.828 15.1401 300.89 16 302.989 16C307.408 15.978 311 12.384 311 7.98898C311 3.59394 307.408 0 302.989 0ZM309.685 7.98898C309.685 11.6785 306.684 14.6771 302.989 14.6771C299.294 14.6771 296.308 11.6785 296.308 7.98898C296.308 4.2995 299.309 1.32292 302.989 1.30087C306.684 1.32292 309.685 4.32154 309.685 7.98898Z" fill="white"/>
</svg>
